<svg transform="scale(1)" id="_0379_Question_1" xmlns="http://www.w3.org/2000/svg" viewBox="0 0 500 500" class="show_show__wrapper__graphic__5Waiy "><title>React</title><defs><style>.cls-1{fill:#d6b2a4;}.cls-2{fill:#fff;}.cls-3{fill:#4da550;}.cls-4{fill:#ffde91;}.cls-5{fill:#af93a2;}.cls-6{fill:#292e54;}.cls-7{fill:#e6e7e8;}</style></defs><g id="shadow-charac"><path class="cls-7" d="M146.72,433.41c-3.58,1.05-7.74,2.91-8.23,6.62-.68,5.12,5.87,7.73,10.97,8.53,49.25,7.79,101.1,15.36,147.85-1.99,5.91-2.19,12.79-6.79,11.4-12.93-1.38-6.09-9.39-7.32-15.62-7.25-26.83,.3-53.67,.62-80.5,.9-22.64,.24-43.72-.38-65.86,6.13Z"></path></g><g id="shadow"><path class="cls-7" d="M94.07,115.07c-7.19,17-6.77,36.36-2.99,54.43,4.41,21.08,15.69,43.49,36.37,49.51,21.31,6.21,43.42-7.64,58.29-24.12,12.78-14.17,22.78-30.66,35.42-44.95,11.2-12.65,27.02-24.24,43.59-20.92,11.33,2.27,20.09,10.99,28.11,19.3,12.77,13.22,25.54,26.43,38.31,39.65,8.44,8.74,17.17,17.94,20.67,29.58,3.56,11.8,1.25,24.48-1.07,36.58-2.2,11.45-4.63,23.41-11.94,32.49-6.45,8.02-15.99,12.87-23.67,19.73-10.47,9.34-17.31,22.24-27.93,31.41-12.63,10.9-29.71,15.62-46.39,15.92s-33.16-3.44-49.28-7.76c-8.85-2.37-18.05-5.15-24.58-11.57-6.48-6.38-9.4-15.43-12.1-24.11-4.62-14.86-9.25-29.73-13.87-44.59-1.66-5.33-5.64-11.96-10.92-10.17-4.22,1.43-4.85,7.08-4.5,11.53,3.14,40.69,24.64,79.99,58.31,103.04,33.68,23.05,79.08,28.71,116.7,12.89,16.85-7.09,31.76-18.01,46.5-28.83,12.29-9.03,24.94-18.44,32.57-31.64,7.17-12.4,9.26-27,11.21-41.19,2.52-18.33,5.05-36.67,7.57-55,2.36-17.18,4.72-34.75,1.27-51.75-4.98-24.55-21.37-44.98-37.24-64.36-14.38-17.55-29.28-35.54-49.22-46.37-14.06-7.63-29.87-11.27-45.46-14.83-24.9-5.68-52.59-10.99-74.69,1.82-9.13,5.29-16.36,13.23-24.51,19.93-6.78,5.57-14.68,10.37-23.46,11.81-6.01,.99-11.95,.05-17.9,1.72-15.04,4.2-27.19,16.67-33.17,30.81Z"></path><path class="cls-7" d="M359.06,361.58c-1.97,1.37-4.07,2.78-6.03,4.31-5.01,3.91,.81,11.59,5.9,7.8,1.95-1.45,3.8-3.1,5.51-4.7,10.55-9.86,21.13-19.74,30.65-30.6,8.66-9.89,16.8-21.66,16.48-34.8-.07-2.9-.61-5.91-2.33-8.24-1.73-2.33-4.87-3.79-7.62-2.85-4.79,1.64-2.94,12.15-4.21,16.33-2.12,7-5.08,13.76-8.69,20.12-7.33,12.88-17.49,24.17-29.66,32.64Z"></path><path class="cls-7" d="M126,311.13c7.09,20.62,13.57,42.77,29.75,57.38,2.23,2.01,4.8,5.25,2.88,7.56-1.73,2.09-5.11,.73-7.31-.86-12.33-8.95-21.76-21.73-27.01-36.01-2.35-6.4-4.72-13.9-5.87-20.61-.94-5.47,4.09-17.53,7.55-7.45Z"></path></g><g id="question-mark"><g id="X_and_"><path class="cls-3" d="M119.5,123.92c2.58-4.38,3.24-9.59,4.88-14.41,1.64-4.81,4.88-9.7,9.86-10.71,7.37-1.49,13.55,6.47,14.35,13.94,.8,7.47-1.66,14.95-1.41,22.46,.45,13.73,9.66,25.41,18.44,35.98,4.72-3.01,8.63-7.27,11.24-12.22-9.62-8.19-15.3-20.82-15.05-33.45,.19-9.51,3.51-18.66,4.78-28.08,1.61-11.89-1.11-25.77-11.33-32.06-10.07-6.2-23.86-2.39-32.54,5.65-7.35,6.8-14.85,18.55-17.29,28.41-2.33,9.45,8.61,17.8,14.06,24.48Z"></path><path class="cls-3" d="M172.85,178.09c-.5,2.3-.33,4.83,.93,6.81,1.14,1.8,3.06,2.99,5.09,3.66,3.52,1.16,7.55,.81,10.69-1.15,5.59-3.49,7.66-13.81,.75-17.26-2.86-1.42-6.51-.44-9.43,.22-4.89,1.1-6.89,2.54-8.02,7.71Z"></path></g><g id="X_and_-2"><path class="cls-3" d="M115.59,215.65c-.36-2.86-1.87-5.42-2.79-8.14-.93-2.72-1.17-6.03,.72-8.21,2.79-3.22,8.31-1.79,11.25,1.29,2.94,3.07,4.43,7.27,7.14,10.55,4.95,6,13.12,8.04,20.71,9.75,1.07-2.98,1.36-6.24,.81-9.37-7.14-.35-14.05-4.04-18.31-9.79-3.2-4.32-4.88-9.58-7.57-14.24-3.39-5.89-9.41-11.17-16.17-10.45-6.66,.71-11.52,7.18-12.63,13.79-.94,5.59-.24,13.45,2.08,18.71,2.22,5.04,10.02,5,14.77,6.11Z"></path><path class="cls-3" d="M158.24,221.47c.57,1.2,1.52,2.28,2.77,2.73,1.13,.41,2.41,.28,3.54-.12,1.98-.7,3.67-2.25,4.39-4.21,1.3-3.5-1.34-8.84-5.63-7.99-1.77,.35-3.07,2.06-4.15,3.36-1.81,2.18-2.21,3.52-.93,6.23Z"></path></g><g id="X_and_-3"><path class="cls-3" d="M211.6,87.48c2.91-1.56,5.04-4.23,7.58-6.34,2.54-2.11,5.99-3.73,9.09-2.61,4.59,1.66,5.33,8.17,3.25,12.59-2.08,4.42-5.97,7.74-8.37,11.99-4.39,7.77-3.22,17.37-1.93,26.2,3.64-.08,7.25-1.11,10.37-2.98-2.57-7.8-1.45-16.72,2.95-23.65,3.32-5.21,8.25-9.17,12.14-13.97,4.91-6.06,8.1-14.68,4.55-21.62-3.5-6.84-12.44-9.39-19.97-7.86-6.38,1.29-14.51,5.27-19.19,9.92-4.49,4.46-1.24,12.79-.47,18.34Z"></path><path class="cls-3" d="M222.9,135.58c-1.06,1.1-1.82,2.57-1.79,4.09,.02,1.38,.69,2.7,1.59,3.75,1.56,1.83,3.92,3,6.32,2.98,4.28-.05,8.92-5.08,6.25-9.32-1.1-1.76-3.47-2.44-5.31-3.07-3.08-1.04-4.68-.92-7.06,1.57Z"></path></g><g id="X_and_-4"><path class="cls-3" d="M306.35,88.56c4.18,.82,8.47-.11,12.73-.15,4.25-.04,9.01,1.16,11.19,4.81,3.23,5.4-1.34,12.49-7.01,15.2-5.68,2.71-12.26,2.85-18.12,5.13-10.71,4.18-17.36,14.69-23.27,24.55,3.69,2.89,8.14,4.79,12.77,5.48,3.79-9.87,12.17-17.86,22.21-21.18,7.55-2.5,15.7-2.42,23.49-4.03,9.83-2.04,20.03-8.04,22.15-17.86,2.09-9.67-4.75-19.49-13.51-24.11-7.41-3.91-18.77-6.56-27.22-5.74-8.11,.79-11.65,11.75-15.41,17.91Z"></path><path class="cls-3" d="M278.45,145.73c-1.95,.24-3.9,1.08-5.12,2.62-1.1,1.4-1.51,3.25-1.47,5.03,.07,3.1,1.46,6.19,3.88,8.12,4.31,3.44,13.03,2.21,13.83-4.2,.33-2.65-1.47-5.26-2.8-7.38-2.23-3.55-3.92-4.73-8.32-4.19Z"></path></g><g id="X_and_-5"><path class="cls-3" d="M361.56,149.65c1.72,2.31,4.29,3.8,6.44,5.71,2.15,1.92,3.99,4.68,3.42,7.5-.84,4.17-6.35,5.64-10.43,4.42-4.08-1.23-7.43-4.15-11.41-5.67-7.26-2.78-15.38-.54-22.82,1.71,.53,3.12,1.89,6.1,3.9,8.55,6.39-3.22,14.22-3.4,20.76-.5,4.92,2.19,8.96,5.93,13.6,8.67,5.85,3.45,13.69,5.09,19.22,1.14,5.45-3.89,6.49-11.92,4.21-18.22-1.93-5.33-6.41-11.83-11.02-15.26-4.42-3.3-11.18,.58-15.86,1.95Z"></path><path class="cls-3" d="M321.58,165.57c-1.09-.77-2.44-1.23-3.76-1.01-1.19,.2-2.23,.94-3.03,1.85-1.38,1.58-2.08,3.76-1.75,5.83,.59,3.68,5.52,7.03,8.84,4.19,1.37-1.18,1.66-3.3,1.96-4.97,.5-2.79,.19-4.15-2.26-5.88Z"></path></g><g id="X_and_-6"><path class="cls-3" d="M388.07,224.96c.07,2.88,1.32,5.58,1.97,8.38,.65,2.8,.56,6.12-1.53,8.1-3.09,2.92-8.44,.95-11.07-2.4-2.62-3.35-3.68-7.68-6.05-11.22-4.33-6.46-12.25-9.31-19.63-11.77-1.37,2.86-1.97,6.08-1.75,9.24,7.07,1.06,13.58,5.42,17.24,11.57,2.76,4.62,3.9,10.01,6.11,14.92,2.79,6.2,8.25,12.05,15.04,12.01,6.7-.04,12.18-6,13.95-12.45,1.5-5.47,1.58-13.36-.2-18.82-1.71-5.24-9.47-5.98-14.08-7.55Z"></path><path class="cls-3" d="M346.22,214.9c-.45-1.25-1.28-2.42-2.48-3-1.09-.52-2.37-.52-3.54-.23-2.04,.5-3.87,1.87-4.79,3.75-1.64,3.35,.45,8.93,4.8,8.52,1.8-.17,3.26-1.74,4.47-2.93,2.02-1.99,2.55-3.28,1.55-6.11Z"></path></g><g id="X_and_-7"><path class="cls-3" d="M359.57,283.35c-1.29,1.84-1.76,4.12-2.66,6.19-.89,2.07-2.49,4.11-4.73,4.38-3.3,.4-5.75-3.33-5.85-6.65-.09-3.33,1.25-6.54,1.4-9.87,.28-6.08-3.38-11.55-6.88-16.53-2.19,1.17-4.06,2.91-5.39,5,3.96,3.95,6.03,9.72,5.48,15.29-.41,4.19-2.2,8.11-3.09,12.23-1.12,5.19-.41,11.42,3.89,14.55,4.23,3.09,10.45,1.88,14.56-1.36,3.48-2.75,7.2-7.67,8.62-11.94,1.36-4.09-3.18-8.16-5.35-11.3Z"></path><path class="cls-3" d="M337.91,257.58c.3-1,.32-2.12-.17-3.04-.44-.83-1.25-1.43-2.12-1.79-1.51-.63-3.3-.62-4.76,.13-2.59,1.35-3.86,5.83-.93,7.59,1.21,.73,2.86,.42,4.17,.23,2.19-.32,3.13-.88,3.81-3.12Z"></path></g><g id="X_and_-8"><path class="cls-3" d="M318.42,292.57c-1.24,.39-2.25,1.27-3.38,1.91-1.13,.64-2.58,1.01-3.7,.36-1.66-.97-1.48-3.54-.36-5.09,1.12-1.56,2.86-2.56,4.09-4.03,2.25-2.69,2.49-6.48,2.62-9.98-1.41-.23-2.88-.09-4.22,.41,.43,3.2-.63,6.56-2.83,8.92-1.65,1.78-3.84,2.95-5.69,4.53-2.33,1.99-4.18,5.09-3.3,8.03,.86,2.89,4.13,4.52,7.15,4.47,2.56-.04,5.98-1,8.12-2.46,2.05-1.4,1.39-4.85,1.49-7.05Z"></path><path class="cls-3" d="M317.49,273.18c.49-.35,.88-.86,.98-1.45,.09-.54-.07-1.09-.35-1.56-.47-.82-1.3-1.44-2.23-1.6-1.66-.29-3.81,1.32-3.08,3.15,.3,.76,1.16,1.19,1.83,1.56,1.12,.62,1.74,.69,2.84-.1Z"></path></g></g><g id="character-1"><path class="cls-1" d="M171.02,399.62c-4.44,2.78-9.14,6.69-9.13,11.93,0,5.55,5.3,9.53,10.35,11.82,7.65,3.48,15.96,5.24,24.22,6.82,16.83,3.21,34.16,5.71,51.02,2.69,16.86-3.02,33.38-12.43,41.04-27.75,1.36-2.72,2.41-6,1.06-8.72-1.54-3.11-5.43-4.07-8.84-4.69-16.2-2.96-32.37-6.11-48.6-8.88-12.79-2.18-27.09,1.71-39.08,6.05-2.86,1.04-22.03,7.7-22.03,10.73Z"></path><path class="cls-4" d="M202.66,406.21c2.71,5.04,10.91,5.18,14.95,7.46,3.16,1.79,3.64,7.28,7.26,7.52,2.46,.16,4.54-1.82,5.82-3.92,3.58-5.88,3.24-13.91-.83-19.46s-11.63-8.28-18.31-6.63c-1.04-12.29-2.07-24.59-3.11-36.88-.97-11.55-.16-25.18-3.09-36.38-1.31-4.99-3.5-4.41-5.29,.05-1.84,4.6-1.74,10.33-2.13,15.21-.96,12.01-1.04,24.09-.24,36.11,.22,3.3,4.35,35.77,4.97,36.92Z"></path><path class="cls-4" d="M259.75,381.82c-.73,4.26-1.95,9.19-5.92,10.91-3.33,1.45-7.31-.04-10.76,1.09-2.84,.93-4.88,3.54-5.89,6.36-1,2.82-1.13,5.86-1.24,8.85-.12,3.27-.23,6.67,1.05,9.69s4.36,5.53,7.6,5.06c4.82-.71,6.44-6.64,9.04-10.76,1.99-3.15,4.98-5.55,7.04-8.66,2.37-3.59,3.34-7.9,4.27-12.11,3.89-17.65,7.79-35.42,8.5-53.48,.15-3.89,.69-17.33-4.61-18.73-6.21-1.64-5.01,10.21-4.8,13,1.25,16.36-1.53,32.7-4.27,48.77Z"></path><g><path class="cls-6" d="M213.91,228.72c-5.9,.79-12.47,.05-17.22,3.65-4.39,3.33-5.7,9.36-5.82,14.88-.22,9.89,3.19,20.87,11.92,25.52,6.69,3.57,14.78,2.59,22.33,1.92,7.56-.67,15.95-.67,21.73,4.24,5.59,4.75,7.04,12.65,10.44,19.15,6.14,11.74,19.81,19.07,32.98,17.68,7.78-.82,15.96-5.38,17.72-13,1.82-7.88-3.68-15.54-4.47-23.59-1.4-14.28,11.88-26.11,13.41-40.37,.72-6.67-1.27-13.46-4.76-19.19-3.49-5.73-8.42-10.48-13.79-14.5-9.54-7.14-21.13-12.27-33.04-11.65-8.48,.45-17,4.27-22.56,10.77-2.49,2.91-3.79,6.47-6.03,9.54-2.54,3.48-5.31,6.75-8.82,9.28-4.13,2.98-8.97,4.98-14.03,5.66Z"></path><path class="cls-4" d="M230.77,205.06c-11.27,20.38-14.92,44.38-13.33,67.61,.23,3.39,.58,6.83,1.82,10,1.24,3.17,3.49,6.08,6.61,7.43,4.47,1.93,9.66,.34,14.05-1.78,13.14-6.37,23.49-17.16,34.2-27.09,4.6-4.26,9.37-8.47,12.77-13.74,3.4-5.27,5.28-11.89,3.49-17.89-1.38-4.62-4.73-8.36-8.21-11.69-5.26-5.02-11.06-9.48-17.27-13.28-5.12-3.13-12.21-5.94-18.05-7.55-7.45-2.05-12.59,1.68-16.07,7.98Z"></path><path class="cls-6" d="M233.65,239.45c-.03-.45-.22-1.01-.67-1.03-.35-.01-.59,.32-.76,.62-.64,1.11-4.61,7.38-2,8.36,2.4,.9,3.54-6.59,3.43-7.95Z"></path><path class="cls-6" d="M252.75,252.43c.2-.38,.35-.78,.25-1.18-.7-2.78-7.06,2.69-6.88,4.58,.31,3.35,6.02-2.27,6.63-3.41Z"></path><path class="cls-6" d="M286.12,200.87c2.45,4.95,4.64,10.09,5.69,15.52,1.06,5.42,.94,11.18-1.11,16.32-2.64,6.6-8.3,11.89-9.81,18.83-.39,1.8-.41,3.88,.83,5.24,1,1.1,2.58,1.44,4.05,1.63,5.84,.75,11.9-.01,17.25-2.47,5.35-2.46,9.93-6.64,12.59-11.89,3.05-6.02,3.45-13.08,2.48-19.76-.55-3.81-1.56-7.6-3.52-10.91-2.07-3.49-5.11-6.29-8.24-8.88-4.63-3.82-9.73-5.96-14.78-9.01-1.39-.84-3.23-2.28-4.9-1.34-2.56,1.46-1.52,4.7-.52,6.72Z"></path><path class="cls-1" d="M269.75,195.79c.44,1.17,1.2,2.19,1.95,3.2,3.29,4.48,6.36,9.16,8.52,14.28,2.16,5.12,3.41,10.7,2.94,16.24-.32,3.8-1.43,7.49-2.77,11.06-.36,.96-.75,1.93-.77,2.96-.03,1.02,.38,2.13,1.27,2.64,1.51,.87,3.35-.34,4.58-1.57,5.96-5.95,9.65-14.13,10.17-22.54,.52-8.41-2.14-16.98-7.33-23.62-2.85-3.65-6.66-6.39-11.01-8.02-3.64-1.36-9.3,.64-7.54,5.37Z"></path><path class="cls-6" d="M261.33,245.42c-7.09-.69-14.15-2.66-20.18-6.46-12.14-7.66-18.79-22.04-20.35-36.31-.8-7.27-.34-15,3.4-21.28,1.99-3.34,5.02-6.23,8.79-7.19,4.09-1.04,8.4,.31,12.26,2.02,10.7,4.73,19.93,12.2,29.01,19.57,4.05,3.29,8.17,6.65,11.01,11.03,3.53,5.44,4.81,12.16,4.21,18.61-.53,5.67-2.45,11.15-5.16,16.14-2.41,4.44-7.39,3.86-11.95,4.08-3.68,.18-7.37,.15-11.04-.21Z"></path><path class="cls-6" d="M232.02,281.78c-.8,0-1.68-.03-2.29-.55-.78-.67-.8-1.89-.46-2.86,.89-2.52,3.77-4.01,6.43-3.78,2.67,.24,5.05,1.93,6.63,4.08,1.58,2.15,.34,3.12-1.73,3.12-2.86,.01-5.73-.02-8.59-.02Z"></path></g><path class="cls-1" d="M214.22,296.32c-2.24,1.82-4.06,4.14-6.34,5.92-3.39,2.64-7.61,3.96-11.36,6.05-3.76,2.09-7.31,5.46-7.59,9.75-.28,4.28,2.76,8.03,5.98,10.86,3.36,2.95,7.35,5.52,11.8,5.88,7.17,.58,13.72-4.85,16.77-11.37,2.83-6.06,4.31-14.94,4.24-21.67-.08-7.57-7.8-10.06-13.51-5.42Z"></path><path class="cls-1" d="M248.46,323.97c.78,3.19,1.7,6.61,4.22,8.72,2.18,1.82,5.22,2.33,8.04,1.98,2.82-.35,5.48-1.45,8.1-2.55,3.54-1.48,7.16-3.01,9.99-5.61s4.75-6.51,3.95-10.27c-.77-3.58-3.74-6.19-6.54-8.55-6.25-5.25-19.89-17.78-29.26-15.24-9.71,2.63-.05,25.19,1.5,31.51Z"></path><path class="cls-4" d="M273.18,399.51c-2.86,2.51-5.04,5.68-7.42,8.65-8.79,11.03-20.58,19.64-33.76,24.65-1.44,.55-3.13,1.33-3.33,2.86-.21,1.55,1.3,2.78,2.72,3.45,6.47,3.04,14.05,1.65,21.01,.04,9.25-2.14,18.65-4.66,26.45-10.06,7.18-4.96,15.29-15.45,14.05-24.9-1.3-9.87-13.56-10.08-19.72-4.69Z"></path><path class="cls-6" d="M206.37,427.88c-5.4-2.4-11.19-3.9-17.08-4.42-2-.18-4.04-.24-5.97,.31s-3.74,1.79-4.56,3.61c-1,2.22-.34,4.93,1.13,6.88,1.47,1.95,3.62,3.26,5.82,4.33,7.14,3.49,18.1,6.24,25.98,3.69,10.15-3.29,0-12.05-5.31-14.4Z"></path><path class="cls-6" d="M238.22,427.88c5.4-2.4,11.19-3.9,17.08-4.42,2-.18,4.04-.24,5.97,.31s3.74,1.79,4.56,3.61c1,2.22,.34,4.93-1.13,6.88s-3.62,3.26-5.82,4.33c-7.14,3.49-18.1,6.24-25.98,3.69-10.15-3.29,0-12.05,5.31-14.4Z"></path><path class="cls-4" d="M169.77,420.85c2.48,3.51,6.12,6.02,9.88,8.09,15.83,8.69,34.42,10.38,52.42,11.9,2.72,.23,6.2,.01,7.15-2.54,1.18-3.15-2.75-5.66-5.9-6.84-15.69-5.84-30.03-14.04-43.6-23.77-4.45-3.19-10.72-8.06-16.53-5.49-7.32,3.24-7.48,12.9-3.42,18.65Z"></path><path class="cls-2" d="M243.24,423.18c-.2,0-.39-.12-.47-.33-1.69-4.57-1.59-9.77,.26-14.28,1.85-4.5,5.45-8.27,9.86-10.32,.25-.12,.55,0,.66,.24,.12,.25,0,.55-.24,.66-4.19,1.95-7.6,5.52-9.36,9.8-1.76,4.27-1.85,9.21-.25,13.55,.1,.26-.04,.55-.3,.64-.06,.02-.12,.03-.17,.03Z"></path><path class="cls-2" d="M226.38,421.2c-.06,0-.11,0-.17-.03-.26-.09-.4-.38-.31-.64,1.61-4.55,1.13-9.77-1.27-13.95-2.4-4.19-6.67-7.23-11.41-8.13-.27-.05-.45-.31-.4-.59,.05-.27,.32-.45,.58-.4,5.02,.96,9.54,4.18,12.09,8.62,2.55,4.44,3.05,9.96,1.35,14.78-.07,.21-.27,.33-.47,.33Z"></path><path class="cls-5" d="M228.82,293.63c-4.15,1.65-7.23,5.17-10.14,8.57-5.96,6.96-12.2,14.55-13.07,23.67-.58,6.07,1.32,12.07,3.2,17.87,3.83,11.84,7.67,23.69,11.5,35.53,1.02,3.14,2.11,6.41,4.47,8.71,4.66,4.56,12.73,3.56,17.93-.38,5.12-3.88,8.2-9.94,9.94-16.12,1.74-6.19,2.31-12.63,3.43-18.96,1.29-7.3,3.3-14.48,4.25-21.83,.95-7.36,.77-15.07-2.19-21.87-3.96-9.09-18.96-19.32-29.31-15.19Z"></path></g></svg>